<mxfile host="app.diagrams.net" modified="2023-12-20T10:50:40.676Z" agent="Mozilla/5.0 (Windows NT 10.0; Win64; x64) AppleWebKit/537.36 (KHTML, like Gecko) Chrome/120.0.0.0 Safari/537.36" etag="b9_kOSevTueesd21jpGu" version="22.1.11" type="github">
  <diagram name="Page-1" id="5ajnSnswu7xf0T0-dUDN">
    <mxGraphModel dx="1858" dy="1714" grid="1" gridSize="10" guides="1" tooltips="1" connect="1" arrows="1" fold="1" page="1" pageScale="1" pageWidth="850" pageHeight="1100" math="0" shadow="0">
      <root>
        <mxCell id="0" />
        <mxCell id="1" parent="0" />
        <mxCell id="wftP61qZdHQYxLfFjX4l-8" style="edgeStyle=orthogonalEdgeStyle;rounded=0;orthogonalLoop=1;jettySize=auto;html=1;entryX=0.5;entryY=0;entryDx=0;entryDy=0;endSize=10;strokeWidth=3;" edge="1" parent="1" source="wftP61qZdHQYxLfFjX4l-4" target="wftP61qZdHQYxLfFjX4l-6">
          <mxGeometry relative="1" as="geometry" />
        </mxCell>
        <mxCell id="wftP61qZdHQYxLfFjX4l-9" style="edgeStyle=orthogonalEdgeStyle;rounded=0;orthogonalLoop=1;jettySize=auto;html=1;entryX=0.5;entryY=0;entryDx=0;entryDy=0;endSize=10;strokeWidth=3;" edge="1" parent="1" target="wftP61qZdHQYxLfFjX4l-7">
          <mxGeometry relative="1" as="geometry">
            <mxPoint x="425" y="160" as="sourcePoint" />
            <Array as="points">
              <mxPoint x="425" y="180" />
              <mxPoint x="575" y="180" />
            </Array>
          </mxGeometry>
        </mxCell>
        <mxCell id="wftP61qZdHQYxLfFjX4l-18" style="edgeStyle=orthogonalEdgeStyle;shape=connector;rounded=0;orthogonalLoop=1;jettySize=auto;html=1;labelBackgroundColor=default;strokeColor=default;strokeWidth=3;align=center;verticalAlign=middle;fontFamily=Helvetica;fontSize=11;fontColor=default;endArrow=classic;endSize=10;entryX=0.5;entryY=0;entryDx=0;entryDy=0;" edge="1" parent="1" source="wftP61qZdHQYxLfFjX4l-4" target="wftP61qZdHQYxLfFjX4l-17">
          <mxGeometry relative="1" as="geometry">
            <mxPoint x="290" y="220" as="targetPoint" />
            <Array as="points">
              <mxPoint x="425" y="180" />
              <mxPoint x="240" y="180" />
            </Array>
          </mxGeometry>
        </mxCell>
        <mxCell id="wftP61qZdHQYxLfFjX4l-4" value="&lt;b&gt;Public timeline&lt;br&gt;(Non-Authorized)&lt;/b&gt;" style="rounded=1;whiteSpace=wrap;html=1;fillColor=#a0522d;strokeColor=#6D1F00;fontColor=#ffffff;" vertex="1" parent="1">
          <mxGeometry x="365" y="100" width="120" height="60" as="geometry" />
        </mxCell>
        <mxCell id="wftP61qZdHQYxLfFjX4l-13" style="edgeStyle=orthogonalEdgeStyle;shape=connector;rounded=0;orthogonalLoop=1;jettySize=auto;html=1;labelBackgroundColor=default;strokeColor=default;strokeWidth=3;align=center;verticalAlign=middle;fontFamily=Helvetica;fontSize=11;fontColor=default;endArrow=classic;endSize=10;" edge="1" parent="1" source="wftP61qZdHQYxLfFjX4l-6" target="wftP61qZdHQYxLfFjX4l-11">
          <mxGeometry relative="1" as="geometry" />
        </mxCell>
        <mxCell id="wftP61qZdHQYxLfFjX4l-6" value="&lt;b&gt;Register&lt;/b&gt;" style="rounded=1;whiteSpace=wrap;html=1;fillColor=#a0522d;fontColor=#ffffff;strokeColor=#6D1F00;" vertex="1" parent="1">
          <mxGeometry x="365" y="220" width="120" height="60" as="geometry" />
        </mxCell>
        <mxCell id="wftP61qZdHQYxLfFjX4l-14" style="edgeStyle=orthogonalEdgeStyle;shape=connector;rounded=0;orthogonalLoop=1;jettySize=auto;html=1;entryX=0.5;entryY=0;entryDx=0;entryDy=0;labelBackgroundColor=default;strokeColor=default;strokeWidth=3;align=center;verticalAlign=middle;fontFamily=Helvetica;fontSize=11;fontColor=default;endArrow=classic;endSize=10;" edge="1" parent="1" source="wftP61qZdHQYxLfFjX4l-7" target="wftP61qZdHQYxLfFjX4l-12">
          <mxGeometry relative="1" as="geometry" />
        </mxCell>
        <mxCell id="wftP61qZdHQYxLfFjX4l-7" value="&lt;b&gt;Login&lt;/b&gt;" style="rounded=1;whiteSpace=wrap;html=1;fillColor=#a0522d;fontColor=#ffffff;strokeColor=#6D1F00;" vertex="1" parent="1">
          <mxGeometry x="515" y="220" width="120" height="60" as="geometry" />
        </mxCell>
        <mxCell id="wftP61qZdHQYxLfFjX4l-10" style="edgeStyle=orthogonalEdgeStyle;shape=connector;rounded=0;orthogonalLoop=1;jettySize=auto;html=1;entryX=0.5;entryY=0;entryDx=0;entryDy=0;labelBackgroundColor=default;strokeColor=default;strokeWidth=3;align=center;verticalAlign=middle;fontFamily=Helvetica;fontSize=11;fontColor=default;endArrow=classic;endSize=10;exitX=0.5;exitY=1;exitDx=0;exitDy=0;exitPerimeter=0;" edge="1" parent="1" target="wftP61qZdHQYxLfFjX4l-4">
          <mxGeometry relative="1" as="geometry">
            <mxPoint x="425" y="60" as="sourcePoint" />
          </mxGeometry>
        </mxCell>
        <mxCell id="wftP61qZdHQYxLfFjX4l-39" style="edgeStyle=orthogonalEdgeStyle;shape=connector;rounded=0;orthogonalLoop=1;jettySize=auto;html=1;labelBackgroundColor=default;strokeColor=default;strokeWidth=3;align=center;verticalAlign=middle;fontFamily=Helvetica;fontSize=11;fontColor=default;endArrow=classic;endSize=10;" edge="1" parent="1" source="wftP61qZdHQYxLfFjX4l-11" target="wftP61qZdHQYxLfFjX4l-33">
          <mxGeometry relative="1" as="geometry" />
        </mxCell>
        <mxCell id="wftP61qZdHQYxLfFjX4l-11" value="Sign up" style="verticalLabelPosition=middle;verticalAlign=middle;html=1;shape=trapezoid;perimeter=trapezoidPerimeter;whiteSpace=wrap;size=0.23;arcSize=10;flipV=1;labelPosition=center;align=center;fontFamily=Helvetica;fontSize=11;fillColor=#dae8fc;strokeColor=#6c8ebf;" vertex="1" parent="1">
          <mxGeometry x="375" y="320" width="100" height="60" as="geometry" />
        </mxCell>
        <mxCell id="wftP61qZdHQYxLfFjX4l-12" value="Sign in" style="verticalLabelPosition=middle;verticalAlign=middle;html=1;shape=trapezoid;perimeter=trapezoidPerimeter;whiteSpace=wrap;size=0.23;arcSize=10;flipV=1;labelPosition=center;align=center;fontFamily=Helvetica;fontSize=11;fillColor=#dae8fc;strokeColor=#6c8ebf;" vertex="1" parent="1">
          <mxGeometry x="525" y="320" width="100" height="60" as="geometry" />
        </mxCell>
        <mxCell id="wftP61qZdHQYxLfFjX4l-16" value="" style="edgeStyle=orthogonalEdgeStyle;shape=connector;rounded=0;orthogonalLoop=1;jettySize=auto;html=1;labelBackgroundColor=default;strokeColor=default;strokeWidth=3;align=center;verticalAlign=middle;fontFamily=Helvetica;fontSize=11;fontColor=default;endArrow=classic;endSize=10;exitX=0.5;exitY=1;exitDx=0;exitDy=0;exitPerimeter=0;" edge="1" parent="1" source="wftP61qZdHQYxLfFjX4l-15" target="wftP61qZdHQYxLfFjX4l-4">
          <mxGeometry relative="1" as="geometry" />
        </mxCell>
        <mxCell id="wftP61qZdHQYxLfFjX4l-15" value="&lt;b&gt;Start&lt;/b&gt;" style="strokeWidth=2;html=1;shape=mxgraph.flowchart.start_1;whiteSpace=wrap;fontFamily=Helvetica;fontSize=11;fillColor=#d5e8d4;strokeColor=#82b366;" vertex="1" parent="1">
          <mxGeometry x="375" width="100" height="60" as="geometry" />
        </mxCell>
        <mxCell id="wftP61qZdHQYxLfFjX4l-21" style="edgeStyle=orthogonalEdgeStyle;shape=connector;rounded=0;orthogonalLoop=1;jettySize=auto;html=1;entryX=0.5;entryY=0;entryDx=0;entryDy=0;labelBackgroundColor=default;strokeColor=default;strokeWidth=3;align=center;verticalAlign=middle;fontFamily=Helvetica;fontSize=11;fontColor=default;endArrow=classic;endSize=10;" edge="1" parent="1" source="wftP61qZdHQYxLfFjX4l-17">
          <mxGeometry relative="1" as="geometry">
            <mxPoint x="240" y="320" as="targetPoint" />
          </mxGeometry>
        </mxCell>
        <mxCell id="wftP61qZdHQYxLfFjX4l-17" value="Username on cheep" style="verticalLabelPosition=middle;verticalAlign=middle;html=1;shape=trapezoid;perimeter=trapezoidPerimeter;whiteSpace=wrap;size=0.23;arcSize=10;flipV=1;labelPosition=center;align=center;fontFamily=Helvetica;fontSize=11;fillColor=#dae8fc;strokeColor=#6c8ebf;" vertex="1" parent="1">
          <mxGeometry x="190" y="220" width="100" height="60" as="geometry" />
        </mxCell>
        <mxCell id="wftP61qZdHQYxLfFjX4l-24" style="edgeStyle=orthogonalEdgeStyle;shape=connector;rounded=0;orthogonalLoop=1;jettySize=auto;html=1;entryX=0.5;entryY=0;entryDx=0;entryDy=0;labelBackgroundColor=default;strokeColor=default;strokeWidth=3;align=center;verticalAlign=middle;fontFamily=Helvetica;fontSize=11;fontColor=default;endArrow=classic;endSize=10;" edge="1" parent="1" target="wftP61qZdHQYxLfFjX4l-23">
          <mxGeometry relative="1" as="geometry">
            <mxPoint x="240" y="380" as="sourcePoint" />
          </mxGeometry>
        </mxCell>
        <mxCell id="wftP61qZdHQYxLfFjX4l-20" value="&lt;b&gt;&lt;font style=&quot;font-size: 12px;&quot;&gt;User timeline&lt;/font&gt;&lt;/b&gt;" style="rounded=1;whiteSpace=wrap;html=1;fontFamily=Helvetica;fontSize=11;fontColor=#ffffff;fillColor=#a0522d;strokeColor=#6D1F00;" vertex="1" parent="1">
          <mxGeometry x="180" y="320" width="120" height="60" as="geometry" />
        </mxCell>
        <mxCell id="wftP61qZdHQYxLfFjX4l-29" style="edgeStyle=orthogonalEdgeStyle;shape=connector;rounded=0;orthogonalLoop=1;jettySize=auto;html=1;entryX=0.5;entryY=1;entryDx=0;entryDy=0;labelBackgroundColor=default;strokeColor=default;strokeWidth=3;align=center;verticalAlign=middle;fontFamily=Helvetica;fontSize=11;fontColor=default;endArrow=classic;endSize=10;" edge="1" parent="1" source="wftP61qZdHQYxLfFjX4l-23" target="wftP61qZdHQYxLfFjX4l-26">
          <mxGeometry relative="1" as="geometry" />
        </mxCell>
        <mxCell id="wftP61qZdHQYxLfFjX4l-23" value="Pagination" style="verticalLabelPosition=middle;verticalAlign=middle;html=1;shape=trapezoid;perimeter=trapezoidPerimeter;whiteSpace=wrap;size=0.23;arcSize=10;flipV=1;labelPosition=center;align=center;fontFamily=Helvetica;fontSize=11;fillColor=#dae8fc;strokeColor=#6c8ebf;" vertex="1" parent="1">
          <mxGeometry x="190" y="420" width="100" height="60" as="geometry" />
        </mxCell>
        <mxCell id="wftP61qZdHQYxLfFjX4l-30" value="" style="group" vertex="1" connectable="0" parent="1">
          <mxGeometry x="40" y="320" width="100" height="60" as="geometry" />
        </mxCell>
        <mxCell id="wftP61qZdHQYxLfFjX4l-26" value="" style="verticalLabelPosition=bottom;verticalAlign=top;html=1;shape=hexagon;perimeter=hexagonPerimeter2;arcSize=6;size=0.3;fontFamily=Helvetica;fontSize=11;fillColor=#f5f5f5;gradientColor=#b3b3b3;strokeColor=#666666;container=1;" vertex="1" parent="wftP61qZdHQYxLfFjX4l-30">
          <mxGeometry width="100" height="60" as="geometry">
            <mxRectangle width="50" height="40" as="alternateBounds" />
          </mxGeometry>
        </mxCell>
        <mxCell id="wftP61qZdHQYxLfFjX4l-28" value="Change page #" style="text;html=1;align=center;verticalAlign=middle;resizable=0;points=[];autosize=1;strokeColor=none;fillColor=none;fontSize=11;fontFamily=Helvetica;fontColor=default;" vertex="1" parent="wftP61qZdHQYxLfFjX4l-30">
          <mxGeometry y="15" width="100" height="30" as="geometry" />
        </mxCell>
        <mxCell id="wftP61qZdHQYxLfFjX4l-31" style="edgeStyle=orthogonalEdgeStyle;shape=connector;rounded=0;orthogonalLoop=1;jettySize=auto;html=1;entryX=0;entryY=0.5;entryDx=0;entryDy=0;labelBackgroundColor=default;strokeColor=default;strokeWidth=3;align=center;verticalAlign=middle;fontFamily=Helvetica;fontSize=11;fontColor=default;endArrow=classic;endSize=10;" edge="1" parent="1" source="wftP61qZdHQYxLfFjX4l-28">
          <mxGeometry relative="1" as="geometry">
            <mxPoint x="180" y="350" as="targetPoint" />
          </mxGeometry>
        </mxCell>
        <mxCell id="wftP61qZdHQYxLfFjX4l-35" style="edgeStyle=orthogonalEdgeStyle;shape=connector;rounded=0;orthogonalLoop=1;jettySize=auto;html=1;entryX=0;entryY=0.5;entryDx=0;entryDy=0;labelBackgroundColor=default;strokeColor=#F19C99;strokeWidth=3;align=center;verticalAlign=middle;fontFamily=Helvetica;fontSize=11;fontColor=default;endArrow=classic;endSize=10;fillColor=#fad9d5;endFill=1;exitX=0;exitY=0.5;exitDx=0;exitDy=0;exitPerimeter=0;" edge="1" parent="1" source="wftP61qZdHQYxLfFjX4l-33" target="wftP61qZdHQYxLfFjX4l-6">
          <mxGeometry relative="1" as="geometry">
            <Array as="points">
              <mxPoint x="330" y="470" />
              <mxPoint x="330" y="250" />
            </Array>
          </mxGeometry>
        </mxCell>
        <mxCell id="wftP61qZdHQYxLfFjX4l-36" value="&lt;font color=&quot;#f19c99&quot; style=&quot;font-size: 15px;&quot;&gt;No&lt;/font&gt;" style="edgeLabel;html=1;align=center;verticalAlign=middle;resizable=0;points=[];fontSize=11;fontFamily=Helvetica;fontColor=default;" vertex="1" connectable="0" parent="wftP61qZdHQYxLfFjX4l-35">
          <mxGeometry x="0.2271" y="-3" relative="1" as="geometry">
            <mxPoint x="-3" y="11" as="offset" />
          </mxGeometry>
        </mxCell>
        <mxCell id="wftP61qZdHQYxLfFjX4l-42" style="edgeStyle=orthogonalEdgeStyle;shape=connector;rounded=0;orthogonalLoop=1;jettySize=auto;html=1;entryX=0.5;entryY=0;entryDx=0;entryDy=0;labelBackgroundColor=default;strokeColor=#97D077;strokeWidth=3;align=center;verticalAlign=middle;fontFamily=Helvetica;fontSize=11;fontColor=default;endArrow=classic;endSize=10;fillColor=#cdeb8b;" edge="1" parent="1" source="wftP61qZdHQYxLfFjX4l-33" target="wftP61qZdHQYxLfFjX4l-41">
          <mxGeometry relative="1" as="geometry" />
        </mxCell>
        <mxCell id="wftP61qZdHQYxLfFjX4l-46" value="&lt;font color=&quot;#97d077&quot; style=&quot;font-size: 15px;&quot;&gt;Yes&lt;/font&gt;" style="edgeLabel;html=1;align=center;verticalAlign=middle;resizable=0;points=[];fontSize=11;fontFamily=Helvetica;fontColor=default;" vertex="1" connectable="0" parent="wftP61qZdHQYxLfFjX4l-42">
          <mxGeometry x="-0.7921" y="-1" relative="1" as="geometry">
            <mxPoint as="offset" />
          </mxGeometry>
        </mxCell>
        <mxCell id="wftP61qZdHQYxLfFjX4l-33" value="Successful?" style="strokeWidth=2;html=1;shape=mxgraph.flowchart.decision;whiteSpace=wrap;fontFamily=Helvetica;fontSize=11;fontColor=default;" vertex="1" parent="1">
          <mxGeometry x="375" y="420" width="100" height="100" as="geometry" />
        </mxCell>
        <mxCell id="wftP61qZdHQYxLfFjX4l-43" style="edgeStyle=orthogonalEdgeStyle;shape=connector;rounded=0;orthogonalLoop=1;jettySize=auto;html=1;labelBackgroundColor=default;strokeColor=#97D077;strokeWidth=3;align=center;verticalAlign=middle;fontFamily=Helvetica;fontSize=11;fontColor=default;endArrow=classic;endSize=10;fillColor=#cdeb8b;" edge="1" parent="1" source="wftP61qZdHQYxLfFjX4l-34" target="wftP61qZdHQYxLfFjX4l-41">
          <mxGeometry relative="1" as="geometry" />
        </mxCell>
        <mxCell id="wftP61qZdHQYxLfFjX4l-45" value="&lt;font color=&quot;#97d077&quot; style=&quot;font-size: 15px;&quot;&gt;Yes&lt;/font&gt;" style="edgeLabel;html=1;align=center;verticalAlign=middle;resizable=0;points=[];fontSize=11;fontFamily=Helvetica;fontColor=default;" vertex="1" connectable="0" parent="wftP61qZdHQYxLfFjX4l-43">
          <mxGeometry x="-0.7787" y="2" relative="1" as="geometry">
            <mxPoint x="-2" as="offset" />
          </mxGeometry>
        </mxCell>
        <mxCell id="wftP61qZdHQYxLfFjX4l-34" value="Successful?" style="strokeWidth=2;html=1;shape=mxgraph.flowchart.decision;whiteSpace=wrap;fontFamily=Helvetica;fontSize=11;fontColor=default;" vertex="1" parent="1">
          <mxGeometry x="525" y="420" width="100" height="100" as="geometry" />
        </mxCell>
        <mxCell id="wftP61qZdHQYxLfFjX4l-37" style="edgeStyle=orthogonalEdgeStyle;shape=connector;rounded=0;orthogonalLoop=1;jettySize=auto;html=1;labelBackgroundColor=default;strokeColor=#F19C99;strokeWidth=3;align=center;verticalAlign=middle;fontFamily=Helvetica;fontSize=11;fontColor=default;endArrow=classic;endSize=10;fillColor=#fad9d5;endFill=1;exitX=1;exitY=0.5;exitDx=0;exitDy=0;exitPerimeter=0;entryX=1;entryY=0.5;entryDx=0;entryDy=0;" edge="1" parent="1" source="wftP61qZdHQYxLfFjX4l-34" target="wftP61qZdHQYxLfFjX4l-7">
          <mxGeometry relative="1" as="geometry">
            <mxPoint x="694.96" y="440" as="sourcePoint" />
            <mxPoint x="650" y="220" as="targetPoint" />
            <Array as="points">
              <mxPoint x="670" y="470" />
              <mxPoint x="670" y="250" />
            </Array>
          </mxGeometry>
        </mxCell>
        <mxCell id="wftP61qZdHQYxLfFjX4l-38" value="&lt;font color=&quot;#f19c99&quot; style=&quot;font-size: 15px;&quot;&gt;No&lt;/font&gt;" style="edgeLabel;html=1;align=center;verticalAlign=middle;resizable=0;points=[];fontSize=11;fontFamily=Helvetica;fontColor=default;" vertex="1" connectable="0" parent="wftP61qZdHQYxLfFjX4l-37">
          <mxGeometry x="0.2271" y="-3" relative="1" as="geometry">
            <mxPoint x="-3" y="11" as="offset" />
          </mxGeometry>
        </mxCell>
        <mxCell id="wftP61qZdHQYxLfFjX4l-40" style="edgeStyle=orthogonalEdgeStyle;shape=connector;rounded=0;orthogonalLoop=1;jettySize=auto;html=1;entryX=0.5;entryY=0;entryDx=0;entryDy=0;entryPerimeter=0;labelBackgroundColor=default;strokeColor=default;strokeWidth=3;align=center;verticalAlign=middle;fontFamily=Helvetica;fontSize=11;fontColor=default;endArrow=classic;endSize=10;" edge="1" parent="1" source="wftP61qZdHQYxLfFjX4l-12" target="wftP61qZdHQYxLfFjX4l-34">
          <mxGeometry relative="1" as="geometry" />
        </mxCell>
        <mxCell id="wftP61qZdHQYxLfFjX4l-50" style="edgeStyle=orthogonalEdgeStyle;shape=connector;rounded=0;orthogonalLoop=1;jettySize=auto;html=1;entryX=1;entryY=0.5;entryDx=0;entryDy=0;labelBackgroundColor=default;strokeColor=default;strokeWidth=3;align=center;verticalAlign=middle;fontFamily=Helvetica;fontSize=11;fontColor=default;endArrow=classic;endSize=10;" edge="1" parent="1" source="wftP61qZdHQYxLfFjX4l-41" target="wftP61qZdHQYxLfFjX4l-49">
          <mxGeometry relative="1" as="geometry" />
        </mxCell>
        <mxCell id="wftP61qZdHQYxLfFjX4l-41" value="&lt;b&gt;Public Timeline&lt;br&gt;(Authorized)&lt;br&gt;&lt;/b&gt;" style="rounded=1;whiteSpace=wrap;html=1;fillColor=#a0522d;fontColor=#ffffff;strokeColor=#6D1F00;" vertex="1" parent="1">
          <mxGeometry x="440" y="610" width="120" height="60" as="geometry" />
        </mxCell>
        <mxCell id="wftP61qZdHQYxLfFjX4l-77" style="edgeStyle=orthogonalEdgeStyle;shape=connector;rounded=0;orthogonalLoop=1;jettySize=auto;html=1;labelBackgroundColor=default;strokeColor=default;strokeWidth=3;align=center;verticalAlign=middle;fontFamily=Helvetica;fontSize=11;fontColor=default;endArrow=classic;endSize=10;" edge="1" parent="1" source="wftP61qZdHQYxLfFjX4l-48" target="wftP61qZdHQYxLfFjX4l-76">
          <mxGeometry relative="1" as="geometry" />
        </mxCell>
        <mxCell id="wftP61qZdHQYxLfFjX4l-83" style="edgeStyle=orthogonalEdgeStyle;shape=connector;rounded=0;orthogonalLoop=1;jettySize=auto;html=1;entryX=0.5;entryY=0;entryDx=0;entryDy=0;labelBackgroundColor=default;strokeColor=default;strokeWidth=3;align=center;verticalAlign=middle;fontFamily=Helvetica;fontSize=11;fontColor=default;endArrow=classic;endSize=10;" edge="1" parent="1" source="wftP61qZdHQYxLfFjX4l-48" target="wftP61qZdHQYxLfFjX4l-60">
          <mxGeometry relative="1" as="geometry" />
        </mxCell>
        <mxCell id="wftP61qZdHQYxLfFjX4l-86" style="edgeStyle=orthogonalEdgeStyle;shape=connector;rounded=0;orthogonalLoop=1;jettySize=auto;html=1;entryX=0;entryY=0.75;entryDx=0;entryDy=0;labelBackgroundColor=default;strokeColor=default;strokeWidth=3;align=center;verticalAlign=middle;fontFamily=Helvetica;fontSize=11;fontColor=default;endArrow=classic;endSize=10;exitX=0.989;exitY=0.649;exitDx=0;exitDy=0;exitPerimeter=0;" edge="1" parent="1" source="wftP61qZdHQYxLfFjX4l-48" target="wftP61qZdHQYxLfFjX4l-49">
          <mxGeometry relative="1" as="geometry">
            <Array as="points">
              <mxPoint x="199" y="650" />
              <mxPoint x="200" y="650" />
            </Array>
          </mxGeometry>
        </mxCell>
        <mxCell id="wftP61qZdHQYxLfFjX4l-48" value="&lt;b&gt;&lt;font style=&quot;font-size: 12px;&quot;&gt;User timeline&lt;/font&gt;&lt;/b&gt;" style="rounded=1;whiteSpace=wrap;html=1;fontFamily=Helvetica;fontSize=11;fontColor=#ffffff;fillColor=#a0522d;strokeColor=#6D1F00;" vertex="1" parent="1">
          <mxGeometry x="80" y="610" width="120" height="60" as="geometry" />
        </mxCell>
        <mxCell id="wftP61qZdHQYxLfFjX4l-85" style="edgeStyle=orthogonalEdgeStyle;shape=connector;rounded=0;orthogonalLoop=1;jettySize=auto;html=1;entryX=1;entryY=0.25;entryDx=0;entryDy=0;labelBackgroundColor=default;strokeColor=default;strokeWidth=3;align=center;verticalAlign=middle;fontFamily=Helvetica;fontSize=11;fontColor=default;endArrow=classic;endSize=10;exitX=0;exitY=0.25;exitDx=0;exitDy=0;" edge="1" parent="1" source="wftP61qZdHQYxLfFjX4l-49" target="wftP61qZdHQYxLfFjX4l-48">
          <mxGeometry relative="1" as="geometry">
            <Array as="points">
              <mxPoint x="277" y="625" />
            </Array>
          </mxGeometry>
        </mxCell>
        <mxCell id="wftP61qZdHQYxLfFjX4l-49" value="Username on cheep" style="verticalLabelPosition=middle;verticalAlign=middle;html=1;shape=trapezoid;perimeter=trapezoidPerimeter;whiteSpace=wrap;size=0.23;arcSize=10;flipV=1;labelPosition=center;align=center;fontFamily=Helvetica;fontSize=11;fillColor=#dae8fc;strokeColor=#6c8ebf;" vertex="1" parent="1">
          <mxGeometry x="270" y="610" width="100" height="60" as="geometry" />
        </mxCell>
        <mxCell id="wftP61qZdHQYxLfFjX4l-64" style="edgeStyle=orthogonalEdgeStyle;shape=connector;rounded=0;orthogonalLoop=1;jettySize=auto;html=1;entryX=0.5;entryY=0;entryDx=0;entryDy=0;labelBackgroundColor=default;strokeColor=default;strokeWidth=3;align=center;verticalAlign=middle;fontFamily=Helvetica;fontSize=11;fontColor=default;endArrow=classic;endSize=10;" edge="1" parent="1" source="wftP61qZdHQYxLfFjX4l-60" target="wftP61qZdHQYxLfFjX4l-63">
          <mxGeometry relative="1" as="geometry" />
        </mxCell>
        <mxCell id="wftP61qZdHQYxLfFjX4l-60" value="Type cheep" style="verticalLabelPosition=middle;verticalAlign=middle;html=1;shape=trapezoid;perimeter=trapezoidPerimeter;whiteSpace=wrap;size=0.23;arcSize=10;flipV=1;labelPosition=center;align=center;fontFamily=Helvetica;fontSize=11;fillColor=#dae8fc;strokeColor=#6c8ebf;" vertex="1" parent="1">
          <mxGeometry x="90" y="710" width="100" height="60" as="geometry" />
        </mxCell>
        <mxCell id="wftP61qZdHQYxLfFjX4l-69" style="edgeStyle=orthogonalEdgeStyle;shape=connector;rounded=0;orthogonalLoop=1;jettySize=auto;html=1;labelBackgroundColor=default;strokeColor=default;strokeWidth=3;align=center;verticalAlign=middle;fontFamily=Helvetica;fontSize=11;fontColor=default;endArrow=classic;endSize=10;" edge="1" parent="1" source="wftP61qZdHQYxLfFjX4l-63" target="wftP61qZdHQYxLfFjX4l-65">
          <mxGeometry relative="1" as="geometry" />
        </mxCell>
        <mxCell id="wftP61qZdHQYxLfFjX4l-63" value="Post cheep" style="verticalLabelPosition=middle;verticalAlign=middle;html=1;shape=trapezoid;perimeter=trapezoidPerimeter;whiteSpace=wrap;size=0.23;arcSize=10;flipV=1;labelPosition=center;align=center;fontFamily=Helvetica;fontSize=11;fillColor=#dae8fc;strokeColor=#6c8ebf;" vertex="1" parent="1">
          <mxGeometry x="90" y="810" width="100" height="60" as="geometry" />
        </mxCell>
        <mxCell id="wftP61qZdHQYxLfFjX4l-70" style="edgeStyle=orthogonalEdgeStyle;shape=connector;rounded=0;orthogonalLoop=1;jettySize=auto;html=1;entryX=0;entryY=0.5;entryDx=0;entryDy=0;labelBackgroundColor=default;strokeColor=#F19C99;strokeWidth=3;align=center;verticalAlign=middle;fontFamily=Helvetica;fontSize=11;fontColor=default;endArrow=classic;endSize=10;exitX=0;exitY=0.5;exitDx=0;exitDy=0;exitPerimeter=0;" edge="1" parent="1" source="wftP61qZdHQYxLfFjX4l-65" target="wftP61qZdHQYxLfFjX4l-60">
          <mxGeometry relative="1" as="geometry">
            <Array as="points">
              <mxPoint x="50" y="970" />
              <mxPoint x="50" y="740" />
            </Array>
          </mxGeometry>
        </mxCell>
        <mxCell id="wftP61qZdHQYxLfFjX4l-71" value="&lt;font style=&quot;font-size: 15px;&quot;&gt;No&lt;/font&gt;" style="edgeLabel;html=1;align=center;verticalAlign=middle;resizable=0;points=[];fontSize=11;fontFamily=Helvetica;fontColor=default;" vertex="1" connectable="0" parent="wftP61qZdHQYxLfFjX4l-70">
          <mxGeometry x="-0.0276" y="2" relative="1" as="geometry">
            <mxPoint as="offset" />
          </mxGeometry>
        </mxCell>
        <mxCell id="wftP61qZdHQYxLfFjX4l-73" style="edgeStyle=orthogonalEdgeStyle;shape=connector;rounded=0;orthogonalLoop=1;jettySize=auto;html=1;entryX=0.5;entryY=0;entryDx=0;entryDy=0;labelBackgroundColor=default;strokeColor=#97D077;strokeWidth=3;align=center;verticalAlign=middle;fontFamily=Helvetica;fontSize=11;fontColor=default;endArrow=classic;endSize=10;" edge="1" parent="1" source="wftP61qZdHQYxLfFjX4l-65" target="wftP61qZdHQYxLfFjX4l-72">
          <mxGeometry relative="1" as="geometry" />
        </mxCell>
        <mxCell id="wftP61qZdHQYxLfFjX4l-74" value="&lt;font style=&quot;font-size: 15px;&quot;&gt;Yes&lt;/font&gt;" style="edgeLabel;html=1;align=center;verticalAlign=middle;resizable=0;points=[];fontSize=11;fontFamily=Helvetica;fontColor=default;" vertex="1" connectable="0" parent="wftP61qZdHQYxLfFjX4l-73">
          <mxGeometry x="-0.4133" y="-1" relative="1" as="geometry">
            <mxPoint x="1" y="9" as="offset" />
          </mxGeometry>
        </mxCell>
        <mxCell id="wftP61qZdHQYxLfFjX4l-65" value="Is valid?" style="strokeWidth=2;html=1;shape=mxgraph.flowchart.decision;whiteSpace=wrap;fontFamily=Helvetica;fontSize=11;fontColor=default;" vertex="1" parent="1">
          <mxGeometry x="90" y="920" width="100" height="100" as="geometry" />
        </mxCell>
        <mxCell id="wftP61qZdHQYxLfFjX4l-72" value="&lt;b&gt;&lt;font style=&quot;font-size: 12px;&quot;&gt;User timeline&lt;/font&gt;&lt;/b&gt;" style="rounded=1;whiteSpace=wrap;html=1;fontFamily=Helvetica;fontSize=11;fontColor=#ffffff;fillColor=#a0522d;strokeColor=#6D1F00;" vertex="1" parent="1">
          <mxGeometry x="80" y="1080" width="120" height="60" as="geometry" />
        </mxCell>
        <mxCell id="wftP61qZdHQYxLfFjX4l-81" style="edgeStyle=orthogonalEdgeStyle;shape=connector;rounded=0;orthogonalLoop=1;jettySize=auto;html=1;labelBackgroundColor=default;strokeColor=default;strokeWidth=3;align=center;verticalAlign=middle;fontFamily=Helvetica;fontSize=11;fontColor=default;endArrow=classic;endSize=10;" edge="1" parent="1" source="wftP61qZdHQYxLfFjX4l-76">
          <mxGeometry relative="1" as="geometry">
            <mxPoint y="580" as="targetPoint" />
          </mxGeometry>
        </mxCell>
        <mxCell id="wftP61qZdHQYxLfFjX4l-76" value="Pagination" style="verticalLabelPosition=middle;verticalAlign=middle;html=1;shape=trapezoid;perimeter=trapezoidPerimeter;whiteSpace=wrap;size=0.23;arcSize=10;flipV=1;labelPosition=center;align=center;fontFamily=Helvetica;fontSize=11;fillColor=#dae8fc;strokeColor=#6c8ebf;" vertex="1" parent="1">
          <mxGeometry x="-50" y="610" width="100" height="60" as="geometry" />
        </mxCell>
        <mxCell id="wftP61qZdHQYxLfFjX4l-78" value="" style="group" vertex="1" connectable="0" parent="1">
          <mxGeometry x="-50" y="520" width="100" height="60" as="geometry" />
        </mxCell>
        <mxCell id="wftP61qZdHQYxLfFjX4l-79" value="" style="verticalLabelPosition=bottom;verticalAlign=top;html=1;shape=hexagon;perimeter=hexagonPerimeter2;arcSize=6;size=0.3;fontFamily=Helvetica;fontSize=11;fillColor=#f5f5f5;gradientColor=#b3b3b3;strokeColor=#666666;container=1;" vertex="1" parent="wftP61qZdHQYxLfFjX4l-78">
          <mxGeometry width="100" height="60" as="geometry">
            <mxRectangle width="50" height="40" as="alternateBounds" />
          </mxGeometry>
        </mxCell>
        <mxCell id="wftP61qZdHQYxLfFjX4l-80" value="Change page #" style="text;html=1;align=center;verticalAlign=middle;resizable=0;points=[];autosize=1;strokeColor=none;fillColor=none;fontSize=11;fontFamily=Helvetica;fontColor=default;" vertex="1" parent="wftP61qZdHQYxLfFjX4l-78">
          <mxGeometry y="15" width="100" height="30" as="geometry" />
        </mxCell>
        <mxCell id="wftP61qZdHQYxLfFjX4l-82" style="edgeStyle=orthogonalEdgeStyle;shape=connector;rounded=0;orthogonalLoop=1;jettySize=auto;html=1;entryX=0.5;entryY=0;entryDx=0;entryDy=0;labelBackgroundColor=default;strokeColor=default;strokeWidth=3;align=center;verticalAlign=middle;fontFamily=Helvetica;fontSize=11;fontColor=default;endArrow=classic;endSize=10;" edge="1" parent="1" source="wftP61qZdHQYxLfFjX4l-80" target="wftP61qZdHQYxLfFjX4l-48">
          <mxGeometry relative="1" as="geometry" />
        </mxCell>
      </root>
    </mxGraphModel>
  </diagram>
</mxfile>
